<svg xmlns="http://www.w3.org/2000/svg" xml:space="preserve" x="0px" y="0px" viewBox="37.72 70.33 196.25 157.97"><linearGradient id="a" x1="37.72" x2="80.74" y1="995.515" y2="995.515" gradientTransform="translate(0 -784)" gradientUnits="userSpaceOnUse"><stop offset="0" style="stop-color:#4d1e50"/><stop offset="0.52" style="stop-color:#4b1d4e"/><stop offset="0.71" style="stop-color:#441c4b"/><stop offset="0.85" style="stop-color:#381b44"/><stop offset="0.95" style="stop-color:#27193b"/><stop offset="1" style="stop-color:#1e1836"/></linearGradient><path d="M64.14 194.87c-8.08 0-14.78 5.74-16.34 13.39h-2.34v-12.9h-7.74v32.27h7.74v-12.9h2.34c1.01 5.22 4.5 9.58 9.18 11.81 2.16 1.04 4.59 1.62 7.13 1.62 9.18 0 16.63-7.45 16.63-16.63 0-1.62-.23-3.18-.66-4.65-2.02-6.93-8.4-11.98-15.96-11.98zm9.64 17.37c-.17 2.31-1.18 4.45-2.8 6.12a9.57 9.57 0 0 1-6.84 2.83c-.26 0-.55 0-.81-.03-2.28-.17-4.39-1.15-6.03-2.8a9.57 9.57 0 0 1-2.83-6.84c0-2.57.98-5.02 2.83-6.84 1.85-1.79 4.27-2.83 6.84-2.83s5.02 1.04 6.84 2.83c1.79 1.85 2.83 4.27 2.83 6.84 0 .26 0 .49-.03.75z" style="fill:url(#a)"/><linearGradient id="b" x1="142.66" x2="166.44" y1="999.395" y2="999.395" gradientTransform="translate(0 -784)" gradientUnits="userSpaceOnUse"><stop offset="0" style="stop-color:#4d1e50"/><stop offset="0.52" style="stop-color:#4b1d4e"/><stop offset="0.71" style="stop-color:#441c4b"/><stop offset="0.85" style="stop-color:#381b44"/><stop offset="0.95" style="stop-color:#27193b"/><stop offset="1" style="stop-color:#1e1836"/></linearGradient><path d="M159.49 211.93h-9.88v-9.41h-6.95v25.75h6.95v-9.39h9.88v9.39h6.95v-25.75h-6.95z" style="fill:url(#b)"/><linearGradient id="c" x1="63.13" x2="77.36" y1="926.555" y2="926.555" gradientTransform="translate(0 -784)" gradientUnits="userSpaceOnUse"><stop offset="0" style="stop-color:#4d1e50"/><stop offset="0.52" style="stop-color:#4b1d4e"/><stop offset="0.71" style="stop-color:#441c4b"/><stop offset="0.85" style="stop-color:#381b44"/><stop offset="0.95" style="stop-color:#27193b"/><stop offset="1" style="stop-color:#1e1836"/></linearGradient><path d="M63.13 131.79h14.23v21.53H63.13z" style="fill:url(#c)"/><linearGradient id="d" x1="63.13" x2="142.16" y1="907.74" y2="907.74" gradientTransform="translate(0 -784)" gradientUnits="userSpaceOnUse"><stop offset="0" style="stop-color:#4d1e50"/><stop offset="0.52" style="stop-color:#4b1d4e"/><stop offset="0.71" style="stop-color:#441c4b"/><stop offset="0.85" style="stop-color:#381b44"/><stop offset="0.95" style="stop-color:#27193b"/><stop offset="1" style="stop-color:#1e1836"/></linearGradient><path d="M111.63 141.49c-4.73 0-9.21-1.82-12.59-5.2a18.3 18.3 0 0 1-3.26-4.47H82.15c3.52 12.93 15.39 22.46 29.47 22.46 16.86 0 30.54-13.68 30.54-30.54S128.48 93.2 111.63 93.2c-14.87 0-27.16 10.57-29.99 24.62h-4.27v-23.7H63.13v33.43h41.48l4.94-9.73H94.88c.87-2.48 2.25-4.73 4.19-6.67 3.38-3.29 7.85-5.2 12.59-5.2 4.73 0 9.21 1.91 12.59 5.2 3.29 3.38 5.2 7.85 5.2 12.59 0 4.73-1.91 9.21-5.2 12.59-3.38 3.38-7.85 5.2-12.59 5.2z" style="fill:url(#d)"/><linearGradient id="e" x1="82.99" x2="99.07" y1="998.84" y2="998.84" gradientTransform="translate(0 -784)" gradientUnits="userSpaceOnUse"><stop offset="0" style="stop-color:#4d1e50"/><stop offset="0.52" style="stop-color:#4b1d4e"/><stop offset="0.71" style="stop-color:#441c4b"/><stop offset="0.85" style="stop-color:#381b44"/><stop offset="0.95" style="stop-color:#27193b"/><stop offset="1" style="stop-color:#1e1836"/></linearGradient><path d="M85.7 202.05h-2.71v25.58h6.96v-18.62h9.12v-6.96h-9.12z" style="fill:url(#e)"/><linearGradient id="f" x1="113.09" x2="140.43" y1="995.49" y2="995.49" gradientTransform="translate(0 -784)" gradientUnits="userSpaceOnUse"><stop offset="0" style="stop-color:#4d1e50"/><stop offset="0.52" style="stop-color:#4b1d4e"/><stop offset="0.71" style="stop-color:#441c4b"/><stop offset="0.85" style="stop-color:#381b44"/><stop offset="0.95" style="stop-color:#27193b"/><stop offset="1" style="stop-color:#1e1836"/></linearGradient><path d="M129.67 201.85c2.14 0 4.16.69 5.8 1.93l4.96-4.91c-2.92-2.48-6.64-3.98-10.77-3.98-9.12 0-16.57 7.45-16.57 16.63s7.45 16.57 16.57 16.57c4.13 0 7.85-1.5 10.77-3.93l-4.96-4.96a9.63 9.63 0 0 1-5.8 1.93c-2.57 0-4.96-.98-6.81-2.83s-2.83-4.21-2.83-6.81.98-5.02 2.83-6.84c1.85-1.85 4.21-2.83 6.81-2.83z" style="fill:url(#f)"/><linearGradient id="g" x1="147.62" x2="197.27" y1="925.92" y2="925.92" gradientTransform="translate(0 -784)" gradientUnits="userSpaceOnUse"><stop offset="0" style="stop-color:#4d1e50"/><stop offset="0.52" style="stop-color:#4b1d4e"/><stop offset="0.71" style="stop-color:#441c4b"/><stop offset="0.85" style="stop-color:#381b44"/><stop offset="0.95" style="stop-color:#27193b"/><stop offset="1" style="stop-color:#1e1836"/></linearGradient><path d="M151.81 140.05c5.4 8.52 14.89 14.2 25.69 14.2 7.56 0 14.4-2.74 19.77-7.22l-9.12-9.12c-3 2.28-6.75 3.55-10.65 3.55-4.73 0-9.12-1.82-12.5-5.2a17.3 17.3 0 0 1-3.32-4.65c-.32-.66-.61-1.33-.87-2.02h-13.19c.75 3.78 2.19 7.27 4.19 10.42z" style="fill:url(#g)"/><linearGradient id="h" x1="147.6502" x2="197.2702" y1="889.52" y2="889.52" gradientTransform="translate(0 -784)" gradientUnits="userSpaceOnUse"><stop offset="0" style="stop-color:#4d1e50"/><stop offset="0.52" style="stop-color:#4b1d4e"/><stop offset="0.71" style="stop-color:#441c4b"/><stop offset="0.85" style="stop-color:#381b44"/><stop offset="0.95" style="stop-color:#27193b"/><stop offset="1" style="stop-color:#1e1836"/></linearGradient><path d="M165.03 111.21c3.38-3.38 7.74-5.2 12.5-5.2 3.78 0 7.39 1.21 10.36 3.35.12.09.2.14.32.2l3.46-3.41 5.66-5.6c-5.37-4.56-12.21-7.3-19.77-7.3-14.72 0-27.05 10.54-29.85 24.54h13.22c.87-2.42 2.25-4.68 4.16-6.55z" style="fill:url(#h)"/><linearGradient id="i" x1="205.84" x2="217.16" y1="932.6" y2="932.6" gradientTransform="translate(0 -784)" gradientUnits="userSpaceOnUse"><stop offset="0" style="stop-color:#4d1e50"/><stop offset="0.52" style="stop-color:#4b1d4e"/><stop offset="0.71" style="stop-color:#441c4b"/><stop offset="0.85" style="stop-color:#381b44"/><stop offset="0.95" style="stop-color:#27193b"/><stop offset="1" style="stop-color:#1e1836"/></linearGradient><path d="M205.84 142.94h11.32v11.32h-11.32z" style="fill:url(#i)"/><linearGradient id="j" x1="38.31" x2="233.93" y1="907.7" y2="907.7" gradientTransform="translate(0 -784)" gradientUnits="userSpaceOnUse"><stop offset="0" style="stop-color:#4d1e50"/><stop offset="0.52" style="stop-color:#4b1d4e"/><stop offset="0.71" style="stop-color:#441c4b"/><stop offset="0.85" style="stop-color:#381b44"/><stop offset="0.95" style="stop-color:#27193b"/><stop offset="1" style="stop-color:#1e1836"/></linearGradient><path d="M233.7 70.34H38.31v106.72h70.02l8.52-7.25H46.04V77.58h180.18v92.23h-98.2l-7.71 7.25h113.62V70.34z" style="fill:url(#j)"/><linearGradient id="k" x1="168.9823" x2="195.2328" y1="999.435" y2="999.435" gradientTransform="translate(0 -784)" gradientUnits="userSpaceOnUse"><stop offset="0" style="stop-color:#4d1e50"/><stop offset="0.52" style="stop-color:#4b1d4e"/><stop offset="0.71" style="stop-color:#441c4b"/><stop offset="0.85" style="stop-color:#381b44"/><stop offset="0.95" style="stop-color:#27193b"/><stop offset="1" style="stop-color:#1e1836"/></linearGradient><path d="M188.26 205.43c-1.53-1.93-4.16-2.83-6.61-2.83-7.04.06-12.76 5.8-12.7 12.85.06 7.04 5.8 12.76 12.85 12.7 2.34 0 4.91-.81 6.44-2.77v2.89h6.96V202.6h-6.96v2.83zm-2.07 14.41c-1.15 1.18-2.74 1.85-4.42 1.88-1.67 0-3.26-.64-4.47-1.85-1.18-1.18-1.88-2.77-1.88-4.47s.63-3.26 1.85-4.47a6.3 6.3 0 0 1 4.47-1.85c1.65-.06 3.23.61 4.42 1.79 1.24 1.18 1.88 2.77 1.88 4.47s-.63 3.26-1.85 4.47z" style="fill:url(#k)"/><linearGradient id="l" x1="227" x2="233.9279" y1="1008.79" y2="1008.79" gradientTransform="translate(0 -784)" gradientUnits="userSpaceOnUse"><stop offset="0" style="stop-color:#4d1e50"/><stop offset="0.52" style="stop-color:#4b1d4e"/><stop offset="0.71" style="stop-color:#441c4b"/><stop offset="0.85" style="stop-color:#381b44"/><stop offset="0.95" style="stop-color:#27193b"/><stop offset="1" style="stop-color:#1e1836"/></linearGradient><path d="M227 221.31h6.96v6.96H227z" style="fill:url(#l)"/><linearGradient id="m" x1="198.2247" x2="223.9405" y1="995.02" y2="995.02" gradientTransform="translate(0 -784)" gradientUnits="userSpaceOnUse"><stop offset="0" style="stop-color:#4d1e50"/><stop offset="0.52" style="stop-color:#4b1d4e"/><stop offset="0.71" style="stop-color:#441c4b"/><stop offset="0.85" style="stop-color:#381b44"/><stop offset="0.95" style="stop-color:#27193b"/><stop offset="1" style="stop-color:#1e1836"/></linearGradient><path d="M211.27 202.72c-1.44 0-2.83.2-4.13.64 1.99-2.34 5.11-4.13 10.13-4.13v-5.46c-3.58 0-6.75.69-9.44 2.14-2.4 1.24-4.36 2.97-5.92 5.25-3.18 4.56-3.64 9.73-3.67 11.72-.06 1.88.06 3.32.29 4.42.84 6.15 6.15 10.91 12.56 10.97 7.04 0 12.82-5.66 12.85-12.7.06-7.04-5.66-12.82-12.7-12.85zm4.36 17.26c-1.18 1.15-2.77 1.79-4.47 1.79s-3.26-.64-4.47-1.85c-1.18-1.24-1.85-2.83-1.79-4.47 0-1.67.63-3.26 1.85-4.47s2.77-1.85 4.47-1.85c1.67.06 3.26.69 4.47 1.88 1.18 1.18 1.85 2.77 1.79 4.47 0 1.67-.63 3.26-1.85 4.47z" style="fill:url(#m)"/></svg>