<svg width="10" height="18" viewBox="0 0 10 18" fill="#000" xmlns="http://www.w3.org/2000/svg">
<path d="M8.14683 0.27883L0.311913 8.31635C0.174305 8.45753 0.09729 8.64688 0.09729 8.84402C0.09729 9.04117 0.174305 9.23052 0.311913 9.37169L8.14683 17.4122C8.21093 17.4781 8.28757 17.5304 8.37223 17.5661C8.45688 17.6019 8.54784 17.6203 8.63972 17.6203C8.73161 17.6203 8.82257 17.6019 8.90722 17.5661C8.99188 17.5304 9.06852 17.4781 9.13262 17.4122C9.2645 17.2772 9.33833 17.096 9.33833 16.9072C9.33833 16.7185 9.2645 16.5373 9.13262 16.4023L1.7649 8.84402L9.13262 1.2873C9.26404 1.15236 9.33759 0.971432 9.33759 0.783065C9.33759 0.594698 9.26404 0.413775 9.13262 0.27883C9.06852 0.212995 8.99188 0.160668 8.90722 0.124938C8.82257 0.0892088 8.73161 0.0708008 8.63972 0.0708008C8.54784 0.0708008 8.45688 0.0892088 8.37223 0.124938C8.28757 0.160668 8.21093 0.212995 8.14683 0.27883Z" fill="#000"/>
</svg>
