<svg xmlns="http://www.w3.org/2000/svg" fill="none" viewBox="95 10 110.59 280">
<path d="M133.736 12.0316C131.021 13.2262 128.361 15.8324 126.786 18.8187C125.755 20.7734 125.592 22.0223 125.429 29.8953C125.212 39.1258 125.592 41.2977 127.492 42.6551C128.361 43.2523 128.144 44.0668 124.832 52.8086C120.271 64.6453 119.511 67.523 118.696 74.6902C118.207 79.1969 118.207 81.966 118.75 87.3957C119.999 100.427 117.556 108.191 109.248 117.476C102.244 125.295 99.0406 131.05 97.0859 139.304C96.0543 143.593 96 145.928 96 205.166C96 264.729 96.0543 266.738 97.0859 270.05C99.6922 278.575 106.425 285.308 114.895 287.914C118.207 288.946 119.999 289 150.297 289C180.595 289 182.386 288.946 185.698 287.914C194.169 285.308 200.902 278.575 203.508 270.05C204.539 266.738 204.594 264.729 204.594 205.166C204.594 145.928 204.539 143.593 203.508 139.304C201.553 131.05 198.35 125.295 191.345 117.476C183.038 108.191 180.595 100.427 181.843 87.3957C182.386 81.966 182.386 79.1969 181.898 74.6902C181.083 67.523 180.323 64.6996 175.816 52.8086C172.504 44.0668 172.287 43.2523 173.102 42.6551C175.002 41.2977 175.382 39.1258 175.165 29.8953C174.948 20.0676 174.513 18.4387 170.821 14.8008C167.237 11.2172 166.314 11 150.297 11C137.537 11 135.637 11.1086 133.736 12.0316ZM162.731 23.1625C163.708 24.0312 163.871 24.8457 163.871 28.4836V32.7188H136.723V28.4836C136.723 21.8594 136.723 21.8594 150.894 22.0223C160.559 22.1309 161.699 22.2395 162.731 23.1625ZM160.342 44.5012C168.486 65.4598 170.224 70.9438 170.713 77.5137L171.038 81.8574L150.297 102.49L129.555 81.8574L129.881 77.5137C130.316 71.4867 131.184 68.3918 136.234 55.0891L140.632 43.5781H150.297C158.984 43.5781 160.016 43.6867 160.342 44.5012ZM153.12 116.336L161.699 107.92L170.224 99.5039L171.364 104.228C173.21 111.721 177.065 118.942 182.549 125.023C187.762 130.779 191.074 136.534 192.377 141.91C192.92 144.299 193.191 148.371 193.191 155.104V164.877L188.468 160.262C182.766 154.724 180.106 152.823 173.482 149.729C165.12 145.765 160.776 144.842 150.297 144.842C139.818 144.896 135.42 145.819 127.112 149.729C120.542 152.823 117.827 154.724 112.18 160.262L107.402 164.877V155.104C107.402 148.371 107.674 144.299 108.217 141.91C109.52 136.48 112.832 130.779 117.99 125.078C123.474 118.942 127.438 111.666 129.23 104.228L130.37 99.5039L138.895 107.92L147.473 116.336H153.12ZM158.876 156.841C171.744 159.502 183.038 168.244 189.065 180.243L190.477 183.121H181.572C172.776 183.121 172.613 183.121 170.984 184.533C169.572 185.727 169.301 186.325 169.301 188.388C169.301 193.818 170.93 194.523 183.689 194.523H193.191V217.871H107.402V194.523H116.904C129.664 194.523 131.293 193.818 131.293 188.388C131.293 186.325 131.021 185.727 129.61 184.533C127.981 183.121 127.818 183.121 119.022 183.121H110.117L111.529 180.243C120.434 162.543 139.872 152.932 158.876 156.841ZM189.934 229.545C189.934 230.631 186.241 236.821 183.798 239.861C177.988 247.083 168.541 253.055 159.69 255.01C143.998 258.485 126.895 252.458 116.796 239.861C114.352 236.821 110.66 230.631 110.66 229.545C110.66 229.382 128.524 229.273 150.297 229.273C172.124 229.273 189.934 229.382 189.934 229.545ZM115.873 255.336C122.877 260.929 131.293 264.838 139.872 266.521C144.596 267.39 155.238 267.498 159.853 266.684C171.364 264.675 183.798 257.779 191.02 249.472L193.191 246.92L193.083 256.693C192.92 267.77 192.54 269.019 188.576 272.982C185.861 275.752 183.201 277 178.857 277.652C173.482 278.521 120.705 277.978 118.153 277.055C114.515 275.752 111.095 272.657 109.194 268.964L107.402 265.544V256.259L107.457 246.92L109.629 249.526C110.877 250.938 113.646 253.544 115.873 255.336Z" fill="currentColor"/>
<path fill-rule="evenodd" clip-rule="evenodd" d="M127.492 42.6551C125.592 41.2977 125.212 39.1258 125.429 29.8953C125.592 22.0223 125.755 20.7734 126.786 18.8188C128.361 15.8324 131.021 13.2262 133.736 12.0316C135.637 11.1086 137.537 11 150.297 11C166.314 11 167.237 11.2172 170.821 14.8008C174.513 18.4387 174.948 20.0676 175.165 29.8953C175.382 39.1258 175.002 41.2977 173.102 42.6551C172.287 43.2523 172.504 44.0668 175.816 52.8086C180.323 64.6996 181.083 67.523 181.898 74.6902C182.386 79.1969 182.386 81.966 181.843 87.3957C180.595 100.427 183.038 108.191 191.345 117.476C198.35 125.295 201.553 131.05 203.508 139.304C204.539 143.593 204.594 145.928 204.594 205.166C204.594 264.729 204.539 266.738 203.508 270.05C200.902 278.575 194.169 285.308 185.698 287.914C182.386 288.946 180.595 289 150.297 289C119.999 289 118.207 288.946 114.895 287.914C106.425 285.308 99.6922 278.575 97.0859 270.05C96.0543 266.738 96 264.729 96 205.166C96 145.928 96.0543 143.593 97.0859 139.304C99.0406 131.05 102.244 125.295 109.248 117.476C117.556 108.191 119.999 100.427 118.75 87.3957C118.207 81.966 118.207 79.1969 118.696 74.6902C119.511 67.523 120.271 64.6453 124.832 52.8086C128.144 44.0668 128.361 43.2523 127.492 42.6551ZM123.897 52.4518C125.563 48.056 126.42 45.7301 126.762 44.4239C126.91 43.8618 126.931 43.5939 126.927 43.4801C126.927 43.4798 126.926 43.4795 126.926 43.4791L126.918 43.474L126.911 43.4688C126.336 43.0578 125.846 42.5613 125.464 41.8726C125.089 41.1989 124.843 40.3899 124.68 39.3891C124.357 37.4156 124.321 34.4718 124.429 29.8733C124.591 22.0735 124.737 20.5585 125.902 18.3523C127.562 15.2033 130.371 12.4257 133.316 11.1239C134.425 10.588 135.522 10.3174 137.883 10.1716C140.228 10.0267 143.929 10 150.297 10C158.26 10 162.61 10.05 165.406 10.5736C166.842 10.8427 167.917 11.2433 168.884 11.8466C169.83 12.4368 170.63 13.1955 171.526 14.091C173.418 15.956 174.591 17.4189 175.258 19.7521C175.897 21.99 176.057 24.9915 176.165 29.8718C176.273 34.4712 176.237 37.4154 175.914 39.3891C175.75 40.3899 175.505 41.1989 175.13 41.8726C174.752 42.5533 174.269 43.0463 173.703 43.4545C173.7 43.5736 173.725 43.8478 173.878 44.4194C174.228 45.7288 175.086 48.0584 176.752 52.4542C181.27 64.3769 182.063 67.2898 182.891 74.5773L182.892 74.5824C183.389 79.1676 183.387 82.0069 182.838 87.4944C182.222 93.9303 182.526 98.9821 183.964 103.54C185.402 108.094 187.998 112.235 192.09 116.809C199.18 124.723 202.48 130.623 204.481 139.072C205.024 141.33 205.295 143.082 205.438 151.612C205.58 160.147 205.594 175.552 205.594 205.166C205.594 234.942 205.58 250.347 205.438 258.719C205.295 267.066 205.027 268.535 204.463 270.346C201.759 279.185 194.781 286.165 185.996 288.869C184.217 289.423 182.84 289.7 178.148 289.843C173.479 289.987 165.437 290 150.297 290C135.157 290 127.114 289.987 122.446 289.843C117.753 289.7 116.376 289.423 114.598 288.869C105.813 286.165 98.8345 279.185 96.1308 270.347C95.5668 268.536 95.2985 267.067 95.1562 258.719C95.0135 250.347 95 234.942 95 205.166C95 175.552 95.0135 160.147 95.1562 151.612C95.2989 143.081 95.5702 141.33 96.1133 139.071C98.1145 130.623 101.414 124.723 108.504 116.809C112.596 112.235 115.192 108.094 116.629 103.54C118.068 98.9818 118.372 93.9295 117.755 87.4929M162.066 23.9099L162.064 23.9077C161.885 23.7478 161.732 23.6443 161.474 23.5536C161.183 23.4515 160.735 23.3575 159.954 23.2824C158.384 23.1313 155.734 23.0767 150.883 23.0222C147.329 22.9813 144.702 22.9515 142.742 23.0308C140.75 23.1113 139.599 23.3029 138.909 23.6177C138.589 23.7634 138.395 23.925 138.26 24.0988C138.121 24.2773 138.004 24.5214 137.917 24.8884C137.729 25.6756 137.723 26.7765 137.723 28.4836V31.7188H162.871V28.4836C162.871 26.6437 162.827 25.6385 162.689 24.9924C162.574 24.4507 162.409 24.2141 162.066 23.9099ZM150.894 22.0223C142.056 21.9207 138.73 21.8824 137.478 23.4749C136.723 24.4358 136.723 25.9906 136.723 28.4836V32.7188H163.871V28.4836C163.871 24.8457 163.708 24.0312 162.731 23.1625C161.699 22.2395 160.559 22.1309 150.894 22.0223ZM170.713 77.5137C170.224 70.9437 168.486 65.4598 160.342 44.5012C160.016 43.6867 158.984 43.5781 150.297 43.5781H140.632L136.234 55.0891C131.184 68.3918 130.316 71.4867 129.881 77.5137L129.555 81.8574L150.297 102.49L171.038 81.8574L170.713 77.5137ZM170.007 81.4731L169.715 77.5885C169.24 71.2029 167.573 65.8709 159.431 44.9189C159.303 44.8658 159.009 44.7901 158.362 44.7299C157.035 44.6063 154.661 44.5781 150.297 44.5781H141.32L137.169 55.4439C137.169 55.4444 137.169 55.4449 137.168 55.4453C132.12 68.7443 131.302 71.7185 130.879 77.5856L130.878 77.5885L130.587 81.4731L150.297 101.08L170.007 81.4731ZM153.529 117.336H147.065L138.192 108.632L130.927 101.459L130.202 104.462C128.367 112.078 124.318 119.499 118.736 125.744L118.732 125.749C113.647 131.368 110.444 136.922 109.191 142.137C108.676 144.404 108.402 148.371 108.402 155.104V162.521L111.48 159.548C111.481 159.548 111.482 159.547 111.482 159.546C114.318 156.765 116.453 154.862 118.724 153.262C120.998 151.659 123.379 150.382 126.686 148.824C130.874 146.853 134.129 145.61 137.684 144.861C141.231 144.114 145.03 143.869 150.292 143.842L150.297 143.842C155.559 143.842 159.347 144.073 162.89 144.82C166.439 145.569 169.695 146.827 173.909 148.824C177.243 150.382 179.623 151.659 181.897 153.262C184.168 154.862 186.303 156.765 189.164 159.545L189.166 159.547L192.191 162.502V155.104C192.191 148.372 191.917 144.405 191.403 142.138C190.15 136.975 186.945 131.367 181.808 125.695L181.807 125.693C176.217 119.495 172.28 112.127 170.393 104.467L170.392 104.462L169.667 101.459L162.4 108.634L153.529 117.336ZM170.224 99.5039L171.364 104.228C173.21 111.721 177.065 118.942 182.549 125.023C187.762 130.779 191.074 136.534 192.377 141.91C192.92 144.299 193.191 148.371 193.191 155.104V164.877L188.468 160.262C182.766 154.724 180.106 152.823 173.482 149.729C165.12 145.765 160.776 144.842 150.297 144.842C139.818 144.896 135.42 145.819 127.112 149.729C120.542 152.823 117.827 154.724 112.18 160.262L107.402 164.877V155.104C107.402 148.371 107.674 144.299 108.217 141.91C109.52 136.48 112.832 130.779 117.99 125.078C123.474 118.942 127.438 111.666 129.23 104.228L130.37 99.5039L138.895 107.92L147.473 116.336H153.12L161.699 107.92L170.224 99.5039ZM159.69 255.01C168.541 253.055 177.988 247.083 183.798 239.861C185.823 237.342 188.705 232.659 189.633 230.511C189.635 230.506 189.637 230.502 189.639 230.497C189.827 230.06 189.934 229.729 189.934 229.545C189.934 229.382 172.124 229.273 150.297 229.273C128.524 229.273 110.66 229.382 110.66 229.545C110.66 229.729 110.766 230.06 110.954 230.497C110.956 230.502 110.958 230.506 110.96 230.511C111.889 232.659 114.771 237.342 116.796 239.861C126.895 252.458 143.998 258.485 159.69 255.01ZM112.039 230.47C112.081 230.557 112.125 230.649 112.172 230.746C112.541 231.494 113.065 232.44 113.671 233.459C114.887 235.5 116.394 237.765 117.575 239.235L117.576 239.236C127.438 251.536 144.155 257.426 159.474 254.034C168.093 252.13 177.346 246.286 183.019 239.235C184.2 237.765 185.707 235.5 186.923 233.459C187.529 232.44 188.053 231.494 188.421 230.746C188.469 230.649 188.513 230.557 188.554 230.47C188.085 230.457 187.496 230.445 186.793 230.434C184.788 230.401 181.883 230.372 178.294 230.348C171.116 230.301 161.209 230.273 150.297 230.273C139.412 230.273 129.505 230.301 122.32 230.348C118.727 230.372 115.818 230.401 113.808 230.434C113.102 230.445 112.51 230.457 112.039 230.47ZM115.249 256.117L115.246 256.115C112.988 254.298 110.175 251.653 108.88 250.189L108.87 250.178L108.441 249.663L108.402 256.259V265.298L110.08 268.5L110.083 268.507C111.878 271.993 115.111 274.903 118.49 276.113L118.493 276.114C118.49 276.113 118.49 276.113 118.496 276.115C118.513 276.119 118.572 276.133 118.695 276.153C118.844 276.177 119.045 276.202 119.299 276.228C119.806 276.281 120.49 276.332 121.333 276.383C123.017 276.483 125.298 276.577 127.99 276.66C133.371 276.827 140.368 276.954 147.456 277.025C154.544 277.096 161.718 277.112 167.453 277.055C170.321 277.027 172.825 276.98 174.776 276.914C176.753 276.847 178.1 276.761 178.697 276.665L178.709 276.663C182.875 276.038 185.324 274.871 187.862 272.282L187.869 272.275C189.824 270.32 190.753 269.17 191.291 267.237C191.86 265.196 192.001 262.259 192.083 256.68C192.083 256.68 192.083 256.679 192.083 256.679L192.161 249.674L191.774 250.128C184.394 258.618 171.75 265.623 160.025 267.669L159.853 266.684L160.027 267.669C160.026 267.669 160.026 267.669 160.025 267.669C157.624 268.093 153.735 268.268 149.894 268.234C146.05 268.2 142.139 267.955 139.691 267.505L139.679 267.502C130.94 265.788 122.376 261.809 115.249 256.117ZM193.191 246.92L193.083 256.693C192.92 267.77 192.54 269.019 188.576 272.982C185.861 275.752 183.201 277 178.857 277.652C173.482 278.521 120.705 277.978 118.153 277.055C114.515 275.752 111.095 272.657 109.194 268.964L107.402 265.544V256.259L107.457 246.92L109.629 249.526C110.877 250.938 113.646 253.544 115.873 255.336C122.877 260.929 131.293 264.838 139.872 266.521C144.596 267.39 155.238 267.499 159.853 266.684C171.364 264.675 183.798 257.779 191.02 249.472L193.191 246.92ZM188.171 180.692C188.171 180.691 188.17 180.689 188.169 180.688C182.276 168.958 171.234 160.418 158.673 157.821C140.128 154.006 121.133 163.382 112.425 180.688C112.424 180.689 112.423 180.691 112.422 180.693L111.722 182.121H119.188C123.435 182.121 125.725 182.121 127.134 182.306C127.879 182.404 128.449 182.56 128.967 182.829C129.465 183.089 129.862 183.429 130.261 183.774C130.986 184.388 131.556 184.958 131.896 185.733C132.231 186.494 132.293 187.343 132.293 188.388C132.293 189.763 132.196 191 131.76 192.028C131.294 193.124 130.485 193.895 129.276 194.411C128.12 194.905 126.587 195.172 124.613 195.325C122.624 195.48 120.096 195.523 116.904 195.523H108.402V216.871H192.191V195.523H183.689C180.498 195.523 177.97 195.48 175.981 195.325C174.007 195.172 172.473 194.905 171.317 194.411C170.109 193.895 169.299 193.124 168.834 192.028C168.398 191 168.301 189.763 168.301 188.388C168.301 187.343 168.363 186.494 168.697 185.733C169.037 184.958 169.607 184.388 170.333 183.774C170.731 183.429 171.128 183.089 171.627 182.829C172.145 182.56 172.715 182.404 173.46 182.306C174.869 182.121 177.159 182.121 181.406 182.121H188.872L188.171 180.692ZM190.477 183.121H181.572C172.776 183.121 172.613 183.121 170.984 184.533C169.572 185.727 169.301 186.325 169.301 188.388C169.301 193.818 170.93 194.523 183.689 194.523H193.191V217.871H107.402V194.523H116.904C129.664 194.523 131.293 193.818 131.293 188.388C131.293 186.325 131.021 185.727 129.61 184.533C127.981 183.121 127.818 183.121 119.022 183.121H110.117L111.529 180.243C120.434 162.543 139.872 152.932 158.876 156.841C171.744 159.502 183.038 168.244 189.065 180.243L190.477 183.121Z" fill="currentColor"/>
</svg>