<svg xmlns="http://www.w3.org/2000/svg" fill="none" viewBox="48 41.91 203.76 216.09">
<path d="M104.607 42.943C101.599 44.7784 100.936 46.5627 100.936 52.7315V58.2375H92.9318C87.9866 58.2375 83.5512 58.5434 81.5119 58.9513C73.6607 60.6336 66.0645 65.0181 60.3036 71.1359C53.7269 78.1713 50.3622 86.2774 49.4955 96.9835C48.2719 112.329 47.8131 134.71 48.068 165.962C48.3739 202.413 49.2406 220.155 50.9739 226.477C54.8485 240.242 66.3194 251.56 79.9825 255.077C88.3434 257.219 118.932 258.289 160.227 257.932C196.068 257.576 213.35 256.76 219.927 255.077C233.539 251.509 245.265 239.732 248.833 226.018C250.516 219.543 251.332 202.057 251.688 166.573C251.943 135.271 251.536 113.043 250.261 97.2384C249.394 86.2774 246.08 78.2733 239.453 71.1359C233.692 65.0181 226.096 60.6336 218.245 58.9513C216.205 58.5434 211.77 58.2375 206.876 58.2375H198.821V52.7315C198.821 46.5627 198.158 44.7784 195.15 42.943C192.856 41.5665 188.471 41.5665 186.177 42.943C183.169 44.7784 182.506 46.5627 182.506 52.7315V58.2375H149.878H117.25V52.7315C117.25 48.1941 117.097 47.0215 116.23 45.5941C114.701 43.1469 112.407 41.9234 109.093 41.9234C107.207 41.9234 105.728 42.2293 104.607 42.943ZM100.936 80.0066C100.936 86.2264 101.599 88.0108 104.607 89.8461C106.901 91.2226 111.285 91.2226 113.579 89.8461C116.587 88.0108 117.25 86.2264 117.25 80.0066V74.5516H149.878H182.506V80.0066C182.506 84.595 182.659 85.7676 183.526 87.195C185.056 89.6422 187.35 90.8657 190.663 90.8657C193.977 90.8657 196.271 89.6422 197.801 87.195C198.668 85.7676 198.821 84.595 198.821 79.9557V74.3987L206.111 74.7046C216.766 75.1124 222.272 77.3046 227.319 83.0146C231.551 87.8578 233.233 92.5991 233.743 101.419L234.049 107.18H149.878H65.7076L66.0135 101.419C66.5233 92.5991 68.2057 87.8578 72.4372 83.0146C73.6607 81.6381 75.802 79.8027 77.2295 78.8851C82.3276 75.6222 86.2532 74.7555 95.7358 74.6026L100.936 74.5516V80.0066ZM234.763 126.808C235.323 131.702 234.712 194.46 234.049 206.594C233.692 212.355 233.08 218.677 232.672 220.665C230.837 229.536 223.292 237.081 214.421 238.916C199.432 242.077 100.324 242.077 85.3355 238.916C76.4647 237.081 68.9195 229.536 67.0841 220.665C66.6763 218.677 66.0645 212.457 65.7076 206.849C65.0449 195.021 64.4331 131.753 64.9939 126.808L65.3507 123.494H149.878H234.406L234.763 126.808Z" fill="currentColor"/>
<path d="M103.74 148.934C99.3045 150.973 96.8574 155.052 96.8574 160.303C96.9084 167.542 101.803 172.436 109.093 172.436C116.434 172.436 121.329 167.542 121.329 160.201C121.329 154.899 118.627 150.667 114.089 148.781C111.438 147.659 106.289 147.761 103.74 148.934Z" fill="currentColor"/>
<path d="M144.525 148.934C140.09 150.973 137.643 155.052 137.643 160.303C137.694 167.542 142.588 172.436 149.878 172.436C157.22 172.436 162.114 167.542 162.114 160.201C162.114 154.899 159.412 150.667 154.874 148.781C152.223 147.659 147.074 147.761 144.525 148.934Z" fill="currentColor"/>
<path d="M185.31 148.934C180.875 150.973 178.428 155.052 178.428 160.303C178.479 167.542 183.373 172.436 190.663 172.436C198.005 172.436 202.899 167.542 202.899 160.201C202.899 154.899 200.197 150.667 195.66 148.781C193.008 147.659 187.859 147.761 185.31 148.934Z" fill="currentColor"/>
<path d="M103.74 189.719C99.3045 191.758 96.8574 195.837 96.8574 201.088C96.9084 208.327 101.803 213.222 109.093 213.222C116.434 213.222 121.329 208.327 121.329 200.986C121.329 195.684 118.627 191.453 114.089 189.566C111.438 188.445 106.289 188.547 103.74 189.719Z" fill="currentColor"/>
<path d="M144.525 189.719C140.09 191.758 137.643 195.837 137.643 201.088C137.694 208.327 142.588 213.222 149.878 213.222C157.22 213.222 162.114 208.327 162.114 200.986C162.114 195.684 159.412 191.453 154.874 189.566C152.223 188.445 147.074 188.547 144.525 189.719Z" fill="currentColor"/>
<path d="M185.31 189.719C180.875 191.758 178.428 195.837 178.428 201.088C178.479 208.327 183.373 213.222 190.663 213.222C198.005 213.222 202.899 208.327 202.899 200.986C202.899 195.684 200.197 191.453 195.66 189.566C193.008 188.445 187.859 188.547 185.31 189.719Z" fill="currentColor"/>
</svg>