<svg xmlns="http://www.w3.org/2000/svg" fill="none" viewBox="1 0.1 510 511.9">
<path d="M189.8 20.5C156.4 31.6 128.1 41.5 126.9 42.3C125.7 43.2 123.9 45.2 122.9 46.7C121.1 49.4 121 53.6 121 137V224.5L67.3 242.4C37.7 252.2 11.6 261.1 9.3 262.2C6.9 263.3 4.2 265.6 3 267.4C1 270.7 1 271.9 1 366.6C1 458.2 1.1 462.6 2.9 465.3C3.9 466.8 5.7 468.8 6.9 469.7C8.1 470.5 36.7 480.4 70.3 491.6C113.6 506 132.8 512 136 512C139.2 512 157.5 506.3 198.2 492.8L256 473.5L313.8 492.8C354.5 506.3 372.8 512 376 512C379.2 512 398.4 506 441.7 491.6C475.3 480.4 503.9 470.5 505.1 469.7C506.3 468.8 508.1 466.8 509.1 465.3C510.9 462.6 511 458.2 511 366.6C511 271.9 511 270.7 509 267.4C507.8 265.6 505.1 263.3 502.7 262.2C500.4 261.1 474.3 252.2 444.8 242.4L391 224.5V137C391 53.6 390.9 49.4 389.1 46.7C388.1 45.2 386.3 43.2 385.1 42.3C383.9 41.5 355.3 31.6 321.7 20.4C273.1 4.19999 259.5 -7.62939e-06 255.5 0.0999924C251.8 0.0999924 234.8 5.39999 189.8 20.5ZM291.2 43.2C309.8 49.4 325 54.7 325 55C325 55.3 309.5 60.7 290.5 67L256 78.5L221.5 67C202.5 60.7 187 55.3 187 55C187 54.3 253 32.2 255.5 32.1C256.6 32 272.7 37.1 291.2 43.2ZM196.7 91.7L241 106.5V180.2C241 220.8 240.7 254 240.3 254C239.9 254 219.6 247.4 195.3 239.3L151 224.5V150.8C151 110.2 151.3 77 151.7 77C152.1 77 172.4 83.6 196.7 91.7ZM361 150.8V224.5L316.7 239.3C292.4 247.4 272.1 254 271.7 254C271.3 254 271 220.8 271 180.2V106.5L314.8 91.8C338.8 83.8 359.1 77.1 359.8 77.1C360.7 77 361 92.4 361 150.8ZM171.2 264.2C189.8 270.4 205 275.7 205 276C205 276.3 189.5 281.7 170.5 288L136 299.5L101.5 288C82.5 281.7 67 276.3 67 276C67 275.3 133 253.2 135.5 253.1C136.6 253 152.7 258.1 171.2 264.2ZM411.2 264.2C429.8 270.4 445 275.7 445 276C445 276.3 429.5 281.7 410.5 288L376 299.5L341.5 288C322.5 281.7 307 276.3 307 276C307 275.3 373 253.2 375.5 253.1C376.6 253 392.7 258.1 411.2 264.2ZM76.7 312.7L121 327.5V401.2C121 441.8 120.7 475 120.3 475C119.9 475 99.6 468.4 75.3 460.3L31 445.5V371.8C31 331.2 31.3 298 31.7 298C32.1 298 52.4 304.6 76.7 312.7ZM241 371.8V445.5L196.7 460.3C172.4 468.4 152.1 475 151.7 475C151.3 475 151 441.8 151 401.2V327.5L194.8 312.8C218.8 304.8 239.1 298.1 239.8 298.1C240.7 298 241 313.4 241 371.8ZM316.7 312.7L361 327.5V401.2C361 441.8 360.7 475 360.3 475C359.9 475 339.6 468.4 315.3 460.3L271 445.5V371.8C271 331.2 271.3 298 271.7 298C272.1 298 292.4 304.6 316.7 312.7ZM481 371.8V445.5L436.7 460.3C412.4 468.4 392.1 475 391.7 475C391.3 475 391 441.8 391 401.2V327.5L434.8 312.8C458.8 304.8 479.1 298.1 479.8 298.1C480.7 298 481 313.4 481 371.8Z" fill="currentColor"/>
</svg>