<svg xmlns="http://www.w3.org/2000/svg" fill="none" viewBox="3 50.05 294.24 199.95">
<path d="M34.6592 51.311C30.2925 53.6093 30.0626 54.4711 30.0626 70.5593V84.5216H25.8682C18.8584 84.5216 15.1236 87.5668 15.1236 93.4275C15.1236 99.3457 18.7434 102.333 25.9257 102.333H30.0626V110.665V118.996H19.8351C11.0441 118.996 9.37782 119.111 7.65408 120.088C1.44864 123.363 1.44864 132.671 7.65408 135.774C9.32036 136.636 11.2739 136.808 19.8926 136.808H30.0626V177.373V217.939L31.3267 220.179C33.5101 224.087 35.6935 224.719 47.0701 224.719L56.7805 224.776L59.2512 229.89C66.2036 244.542 82.579 252.528 98.7247 249.138C104.298 247.989 111.538 244.254 115.617 240.519C119.467 236.957 123.259 231.384 124.638 227.419L125.557 224.719H166.467H207.377L208.354 227.477C212.951 240.117 227.545 250 241.795 250C255.24 250 268.168 241.898 273.856 229.89L276.269 224.719H283.451C291.61 224.719 293.736 224.029 295.92 220.754L297.241 218.8V186.164C297.241 167.376 297.012 152.954 296.724 152.149C296.035 150.311 245.3 97.9667 243.174 96.8175C241.852 96.1855 238.29 96.0131 224.557 96.0131H207.607V75.9603C207.607 56.1374 207.607 55.965 206.286 54.0115C205.596 52.9198 204.102 51.5982 203.011 51.0811C201.114 50.1043 195.943 50.0469 119.122 50.0469H37.1874L34.6592 51.311ZM189.795 137.383V206.907H158.251H126.707L125.443 203C120.903 188.922 108.32 179.212 93.5535 178.35C76.9482 177.431 61.8942 187.773 57.0103 203.459L56.0335 206.619L51.954 206.792L47.8745 206.964V171.857V136.808H71.1449C93.2087 136.808 94.5877 136.751 96.6562 135.659C98.2076 134.912 99.2993 133.763 100.161 131.924C102.287 127.557 101.138 123.535 97.0584 120.49C95.507 119.341 94.7026 119.284 71.6621 119.111L47.8745 118.939V110.665V102.333H74.3051C99.4716 102.333 100.908 102.276 102.977 101.184C104.528 100.437 105.62 99.2882 106.481 97.4496C108.607 93.0828 107.458 89.0607 103.379 86.0155C101.827 84.8663 101.023 84.8088 74.8222 84.6365L47.8745 84.4641V76.1902V67.8588H118.835H189.795V137.383ZM246.908 125.719C253.229 132.326 260.468 139.796 262.997 142.382L267.593 147.151H237.6H207.607V130.488V113.825H221.512H235.417L246.908 125.719ZM280.004 185.935V206.907H278.338C276.901 206.907 276.671 206.677 276.327 204.666C276.154 203.459 274.89 200.299 273.569 197.656C264.605 179.672 241.737 172.949 223.695 182.947C218.869 185.59 212.319 192.542 209.733 197.713L207.607 202.023V183.464V164.962H243.806H280.004V185.935ZM98.5523 197.598C102 199.092 106.194 203.287 107.803 206.792C109.642 210.756 109.584 217.651 107.688 221.558C105.849 225.236 102.345 228.683 98.7247 230.464C94.5303 232.475 88.3823 232.475 84.0729 230.407C76.0289 226.557 71.6046 217.594 73.9604 209.665C75.6841 203.632 79.9934 199.035 85.7967 196.909C89.1867 195.702 94.9899 195.99 98.5523 197.598ZM249.379 197.943C263.169 204.953 262.939 223.742 248.977 230.407C246.391 231.614 245.012 231.901 241.507 231.843C236.336 231.786 232.716 230.292 229.096 226.73C225.362 222.995 223.983 219.547 223.983 214.031C223.983 210.009 224.213 208.975 225.706 206.045C230.246 197.254 240.875 193.576 249.379 197.943Z" fill="currentColor"/>
</svg>