<svg xmlns="http://www.w3.org/2000/svg" fill="none" viewBox="28 48.31 244.87 203.69">
<path d="M144.598 48.7418C126.61 51.086 111.828 65.2943 108.336 83.6169C107.57 87.4919 107.714 95.8638 108.575 99.978C112.641 119.784 130.055 133.848 150.434 133.848C170.814 133.848 188.228 119.784 192.294 99.978C193.155 95.8638 193.299 87.4919 192.533 83.6169C190.715 74.0968 186.649 66.6338 179.473 59.8406C173.063 53.765 164.691 49.8421 155.649 48.694C151.152 48.1677 149.191 48.1677 144.598 48.7418ZM158.663 64.481C170.144 68.0212 178.229 78.9764 178.229 90.9841C178.181 98.8777 175.55 105.384 170.001 110.885C164.786 116.148 157.802 119.018 150.434 119.018C143.067 119.018 136.083 116.148 130.868 110.885C125.367 105.384 122.688 98.8777 122.64 91.032C122.64 77.5891 132.447 65.9162 145.794 63.5242C149.191 62.9502 155.075 63.3807 158.663 64.481Z" fill="currentColor"/>
<path d="M69.2983 88.6399C49.0622 93.0411 37.9634 115.191 46.8137 133.609C53.5112 147.674 68.7721 154.85 83.7459 151.071C103.504 146.047 113.598 124.185 104.556 105.862C98.0977 92.8019 83.3153 85.5782 69.2983 88.6399ZM82.7412 104.379C90.5391 107.919 94.8446 117.152 92.3091 124.854C87.1903 140.259 67.002 141.55 60.1609 126.912C59.0128 124.472 58.8214 123.419 58.8214 119.975C58.8214 116.339 59.0128 115.526 60.4001 112.703C61.9789 109.45 64.9927 106.293 67.911 104.762C72.3122 102.466 78.2443 102.322 82.7412 104.379Z" fill="currentColor"/>
<path d="M218.128 88.6878C197.844 93.2325 187.128 115.765 196.361 134.422C201.766 145.33 212.722 152.027 225.064 152.027C242.813 152.027 257.069 137.819 257.117 120.071C257.165 106.197 247.788 93.5196 234.393 89.3575C229.944 87.9702 222.672 87.6831 218.128 88.6878ZM229.131 103.422C234.297 104.762 238.125 107.919 240.469 112.703C241.856 115.526 242.047 116.339 242.047 119.975C242.047 123.419 241.856 124.472 240.708 126.912C237.79 133.179 231.714 137.197 225.064 137.197C215.257 137.197 207.364 128.825 207.938 119.114C208.56 108.398 218.989 100.695 229.131 103.422Z" fill="currentColor"/>
<path d="M125.797 137.484C122.065 137.962 118.334 138.919 115.463 140.067C108.862 142.746 102.116 148.391 98.6239 154.324C97.2366 156.572 96.9495 156.811 95.8971 156.524C93.7443 155.902 60.4958 155.759 57.147 156.333C44.7566 158.486 33.7056 168.149 29.4958 180.587L28.2041 184.319L28.0606 209.148C27.917 233.211 27.9649 234.024 28.9217 236.942C31.505 244.693 38.2982 250.385 46.2396 251.534C50.2581 252.155 250.61 252.155 254.629 251.534C262.57 250.385 269.363 244.693 271.947 236.942C272.903 234.024 272.951 233.211 272.808 209.148L272.664 184.319L271.373 180.587C267.163 168.149 256.112 158.486 243.721 156.333C240.373 155.759 207.124 155.902 204.971 156.524C203.919 156.811 203.632 156.572 202.244 154.324C198.8 148.487 192.007 142.746 185.644 140.163C179.186 137.532 179.281 137.532 152.348 137.436C138.522 137.341 126.61 137.388 125.797 137.484ZM174.832 152.506C182.582 153.749 189.232 159.442 191.959 167.24C192.629 169.25 192.724 173.412 192.868 203.311L193.059 237.182H150.434H107.809L108 203.311C108.144 173.412 108.24 169.25 108.909 167.24C111.588 159.634 118.286 153.749 125.558 152.554C129.289 151.979 171.005 151.932 174.832 152.506ZM91.9742 170.972L93.0267 171.259V204.22V237.23L70.2072 237.086L47.3399 236.942L45.7612 235.842C42.4603 233.498 42.556 234.072 42.556 210.152C42.556 188.768 42.556 188.625 43.7041 185.371C45.8569 179.057 51.2628 173.651 57.3862 171.689C59.9696 170.828 61.7396 170.733 75.5653 170.733C83.985 170.685 91.3523 170.828 91.9742 170.972ZM243.291 171.641C249.558 173.603 254.964 178.961 257.164 185.371C258.312 188.625 258.312 188.768 258.312 210.152C258.312 234.072 258.408 233.498 255.107 235.842L253.528 236.942L230.709 237.086L207.842 237.23V204.22C207.842 173.22 207.889 171.211 208.703 171.02C209.133 170.876 216.453 170.78 224.873 170.733C239.033 170.685 240.516 170.78 243.291 171.641Z" fill="currentColor"/>
</svg>