<svg xmlns="http://www.w3.org/2000/svg" fill="none" viewBox="15 18.38 269.8 264.62">
<path d="M178.287 19.0424C173.453 20.6724 44.3973 74.071 42.2052 75.3076C39.4509 76.9377 36.3032 80.3102 34.5607 83.5703L33.2679 85.9873L33.0993 175.528L32.9869 265.013H26.9163C21.9137 265.013 20.6209 265.182 19.0471 266.137C16.349 267.824 15 270.353 15 274.007C15 277.66 16.349 280.19 19.0471 281.876C20.9019 283 22.1948 283 149.902 283C277.609 283 278.901 283 280.756 281.876C283.454 280.19 284.803 277.66 284.803 274.007C284.803 269.116 281.431 265.013 277.384 265.013H275.81V191.66V118.364L274.573 115.104C273.73 112.799 272.437 110.944 270.245 108.696C267.997 106.504 266.142 105.211 263.837 104.368C260.69 103.187 259.903 103.131 232.248 103.131H203.919L203.75 67.5508L203.581 32.0267L201.67 28.4855C199.534 24.5509 196.611 21.7966 192.677 19.8855C189.473 18.3117 181.716 17.862 178.287 19.0424ZM185.538 37.7038C185.707 38.2097 185.875 89.5285 185.875 151.808V265.013H118.425H50.9738V178.845C50.9738 127.751 51.1986 92.3952 51.4797 91.9455C52.0418 91.1024 182.559 36.9731 184.245 36.8606C184.751 36.8606 185.37 37.1979 185.538 37.7038ZM256.924 122.017C257.711 122.804 257.823 130.111 257.823 193.965V265.013H230.843H203.862V193.066V121.118H229.943C252.933 121.118 256.137 121.23 256.924 122.017Z" fill="currentColor"/>
<path d="M90.9946 113.249C88.2965 114.935 86.9475 117.464 86.9475 121.118C86.9475 124.771 88.2965 127.301 90.9946 128.987C92.7932 130.055 93.9174 130.111 118.425 130.111C142.932 130.111 144.056 130.055 145.855 128.987C148.553 127.301 149.902 124.771 149.902 121.118C149.902 117.464 148.553 114.935 145.855 113.249C144.056 112.181 142.932 112.124 118.425 112.124C93.9174 112.124 92.7932 112.181 90.9946 113.249Z" fill="currentColor"/>
<path d="M90.9946 149.222C88.2965 150.909 86.9475 153.438 86.9475 157.092C86.9475 160.745 88.2965 163.275 90.9946 164.961C92.7932 166.029 93.9174 166.085 118.425 166.085C142.932 166.085 144.056 166.029 145.855 164.961C148.553 163.275 149.902 160.745 149.902 157.092C149.902 153.438 148.553 150.909 145.855 149.222C144.056 148.155 142.932 148.098 118.425 148.098C93.9174 148.098 92.7932 148.155 90.9946 149.222Z" fill="currentColor"/>
<path d="M90.9946 185.196C88.2965 186.883 86.9475 189.412 86.9475 193.066C86.9475 196.719 88.2965 199.249 90.9946 200.935C92.7932 202.003 93.9174 202.059 118.425 202.059C142.932 202.059 144.056 202.003 145.855 200.935C148.553 199.249 149.902 196.719 149.902 193.066C149.902 189.412 148.553 186.883 145.855 185.196C144.056 184.128 142.932 184.072 118.425 184.072C93.9174 184.072 92.7932 184.128 90.9946 185.196Z" fill="currentColor"/>
<path d="M90.9946 221.17C88.2965 222.856 86.9475 225.386 86.9475 229.039C86.9475 232.693 88.2965 235.222 90.9946 236.909C92.7932 237.977 93.9174 238.033 118.425 238.033C142.932 238.033 144.056 237.977 145.855 236.909C148.553 235.222 149.902 232.693 149.902 229.039C149.902 225.386 148.553 222.856 145.855 221.17C144.056 220.102 142.932 220.046 118.425 220.046C93.9174 220.046 92.7932 220.102 90.9946 221.17Z" fill="currentColor"/>
</svg>