<svg xmlns="http://www.w3.org/2000/svg" fill="none" viewBox="16 84 480 343.98">
<path d="M23.2 86C18.4 89 16 93.5 16 100C16 106.5 18.4 111 23.2 114C26.4 116 28.5 116 120 116C211.5 116 213.6 116 216.8 114C221.6 111 224 106.5 224 100C224 93.5 221.6 89 216.8 86C213.6 84 211.5 84 120 84C28.5 84 26.4 84 23.2 86Z" fill="currentColor"/>
<path d="M247.2 86C237.7 91.8 237.3 107.6 246.7 113.7C249.1 115.3 252.7 115.6 280 116C305.9 116.4 311 116.8 313.5 118.2C317.8 120.5 320.9 124.1 322 128.1C322.6 130.2 323 173.7 323 243.7V356H280.8H238.5L234.6 347.8C227.9 333.4 214.7 322.3 199.1 317.6C191.9 315.5 176.1 315.5 168.9 317.6C153.2 322.3 140.1 333.5 133.4 347.9L129.5 356.2L118.3 355.8C108.4 355.4 106.8 355.1 103.2 352.8C96.1 348 96 347.6 96 308.1C96 269.6 95.9 269 90.1 263.5C87.4 261 86 260.5 80.5 260.2C72.7 259.7 68 262.1 65 268.1C63.1 271.7 63 274.1 63 309.3C63 339.6 63.3 347.7 64.5 352.5C68.1 366.1 77.6 377.5 90.6 383.7C98.5 387.5 98.5 387.5 114.3 388L130.1 388.5L132.4 394C138.5 409.3 152.3 421.4 168.9 426.4C176.1 428.5 191.9 428.5 199.1 426.4C214.7 421.7 227.9 410.6 234.6 396.2L238.5 388H288.3C334.8 388 338.1 388.1 338.6 389.7C344.1 406.7 359.2 421.1 376.9 426.4C384.1 428.5 399.9 428.5 407.1 426.4C422.7 421.7 435.9 410.6 442.6 396.2L446.5 388H466C487.8 388 489.9 387.4 494 380.8C495.9 377.6 496 375.6 496 329.9V282.2L493.5 273.6C492.1 268.8 489.8 262.6 488.4 259.8C483.1 249.4 436.3 180.5 431.6 176.2C429 173.8 423.4 170.2 419.2 168.2L411.5 164.5L383.9 164.2L356.2 163.9L355.7 143.2C355.3 125.4 354.9 121.7 353.1 116.6C347.7 101.6 335.6 89.8 321.1 85.6C316.6 84.3 309.9 84 283.1 84C252.3 84 250.3 84.1 247.2 86ZM406 198.5C408.5 200 413.4 206.3 423.7 221.5C431.5 233.1 437.9 242.8 437.9 243.2C438 243.7 419.6 244 397 244H356V219.9V195.9L379.3 196.2C400.4 196.5 402.8 196.7 406 198.5ZM461.6 281.7C463.3 286.9 463.5 291.1 463.8 321.7L464.1 356H455.3H446.5L442.6 347.8C439.6 341.4 437.1 337.9 431.6 332.4C420.1 320.9 408.3 316 392 316C379.1 316 370.5 318.6 359.3 326.1L356 328.2V302.1V276H407.8H459.6L461.6 281.7ZM192.8 350.6C201.3 354.1 207 362.6 207 372C207 392.3 182.8 402.6 168.1 388.7C158.6 379.7 158.6 364.2 168.1 355.4C170 353.6 172.9 351.5 174.5 350.7C178.4 348.6 188 348.6 192.8 350.6ZM400.8 350.6C416.1 356.9 419.9 377.3 407.9 388.7C393.2 402.6 369 392.3 369 372C369 363 374.1 355.1 382.5 350.7C386.4 348.6 396 348.6 400.8 350.6Z" fill="currentColor"/>
<path d="M55.2 150C50.4 153 48 157.5 48 164C48 170.5 50.4 175 55.2 178C58.4 179.9 60.4 180 120 180C179.6 180 181.6 179.9 184.8 178C189.6 175 192 170.5 192 164C192 157.5 189.6 153 184.8 150C181.6 148.1 179.6 148 120 148C60.4 148 58.4 148.1 55.2 150Z" fill="currentColor"/>
<path d="M87.2 214C82.4 217 80 221.5 80 228C80 234.5 82.4 239 87.2 242C90.3 243.9 92.3 244 120 244C147.7 244 149.7 243.9 152.8 242C157.6 239 160 234.5 160 228C160 221.5 157.6 217 152.8 214C149.7 212.1 147.7 212 120 212C92.3 212 90.3 212.1 87.2 214Z" fill="currentColor"/>
</svg>