<svg xmlns="http://www.w3.org/2000/svg" fill="none" viewBox="0 0 251 251">
<g clip-path="url(#clip0_694_27)">
<path d="M63.0447 27.208C30.199 42.1111 2.89292 54.7592 2.35366 55.2494C-0.0975088 57.4064 0.00053798 52.8473 0.00053798 152.316C0.00053798 239.921 0.0495615 245.46 0.88296 247.078C1.32417 248.01 2.45171 249.284 3.38316 249.872L5.04995 251H125.501H245.951L247.618 249.872C248.549 249.284 249.677 248.01 250.118 247.078C250.952 245.46 251.001 239.921 251.001 152.316C251.001 51.7197 251.148 57.2103 248.402 55.1023C247.765 54.5631 220.263 41.9641 187.417 27.0609C134.374 3.03945 127.314 -3.8147e-06 125.206 -3.8147e-06C123.098 -3.8147e-06 115.647 3.28457 63.0447 27.208ZM180.652 40.8365C209.527 53.8768 233.695 64.858 234.48 65.2012L235.803 65.8385V151.09V236.293H222.322H208.84V165.552C208.84 99.2234 208.791 94.7623 207.958 93.1445C207.517 92.2131 206.389 90.9385 205.458 90.3502L203.791 89.2227H125.255H46.7199L45.0531 90.3502C44.1216 90.9385 42.9941 92.2131 42.5529 93.1445C41.7195 94.7623 41.6705 99.2234 41.6705 165.552V236.293H28.4341H15.1978L15.2959 150.992L15.4429 65.6914L70.3492 40.7385C123.245 16.668 125.304 15.7855 126.726 16.4228C127.56 16.766 151.826 27.7473 180.652 40.8365ZM193.643 140.697V177.465H166.729H139.864L138.198 178.592C134.717 180.896 134.815 180.063 134.815 209.673V236.293H125.255H115.696V180.259C115.696 117.803 115.941 122.166 112.313 119.764L110.646 118.637H83.7816H56.8677V111.283V103.93H125.255H193.643V140.697ZM71.0845 137.854C71.0845 143.148 71.8689 145.207 74.4671 146.923C78.0459 149.325 83.4875 147.953 85.3994 144.129C86.0367 142.854 86.2818 141.237 86.2818 137.854V133.344H93.3902H100.499V155.404V177.465H78.6832H56.8677V155.404V133.344H63.9761H71.0845V137.854ZM71.0845 196.682C71.0845 201.977 71.8689 204.036 74.4671 205.751C76.7712 207.32 80.5951 207.32 82.8992 205.751C85.4974 204.036 86.2818 201.977 86.2818 196.682V192.172H93.3902H100.499V214.232V236.293H78.6832H56.8677V214.232V192.172H63.9761H71.0845V196.682ZM164.229 196.682C164.229 200.065 164.474 201.682 165.111 202.957C167.759 208.252 175.897 208.252 178.544 202.957C179.181 201.682 179.426 200.065 179.426 196.682V192.172H186.535H193.643V214.232V236.293H171.828H150.012V214.232V192.172H157.121H164.229V196.682Z" fill="currentColor"/>
<path d="M98.979 51.1314C94.5669 54.0729 94.5669 60.642 98.979 63.5834L100.646 64.7109H125.256H149.865L151.532 63.5834C155.944 60.642 155.944 54.0729 151.532 51.1314L149.865 50.0039H125.256H100.646L98.979 51.1314Z" fill="currentColor"/>
</g>
<defs>
<clipPath id="clip0_694_27">
<rect width="251" height="251" fill="white"/>
</clipPath>
</defs>
</svg>