<svg version="1.1" id="Многоугольник_1_копия_00000087381330347417871220000000193466856906873762_" xmlns="http://www.w3.org/2000/svg" xmlns:xlink="http://www.w3.org/1999/xlink" x="0px" y="0px" style="enable-background:new 0 0 270 296;" xml:space="preserve" viewBox="37.72 70.33 196.25 157.97">
<style type="text/css">
	.st0{display:none;fill:#FFFFFF;}
	.st1{fill:url(#SVGID_1_);}
	.st2{fill:url(#SVGID_00000087408456753977613160000006864998766661327248_);}
	.st3{fill:url(#SVGID_00000125578744694581265090000004185575959494406047_);}
	.st4{fill:url(#SVGID_00000165235985226749567770000009441684350923942045_);}
	.st5{fill:url(#SVGID_00000070077868192543981730000003152174915682139825_);}
	.st6{fill:url(#SVGID_00000039837900161856347370000004661744971581458326_);}
	.st7{fill:url(#SVGID_00000177484615432395629210000015112474991213569213_);}
	.st8{fill:url(#SVGID_00000174566292750098712110000004680293049632199856_);}
	.st9{fill:url(#SVGID_00000080175032667735535420000006248173200809847456_);}
	.st10{fill:url(#SVGID_00000127019102933920980020000011698559893517871544_);}
	.st11{fill:url(#SVGID_00000094602305839751034620000010651775297466540686_);}
	.st12{fill:url(#SVGID_00000103247756369171675050000006058177705107051682_);}
	.st13{fill:url(#SVGID_00000041281745615818538290000007948104489698950825_);}
</style>
<path class="st0" d="M244.46,56.39c15.47,8.93,25,25.43,25,43.3l0.01,97.52c0,17.87-9.53,34.38-25,43.31L160,289.27  c-15.47,8.93-34.53,8.93-50,0l-84.49-48.78c-15.47-8.93-25-25.43-25-43.3l0-97.52c0-17.87,9.53-34.38,25-43.31l84.46-48.75  c15.47-8.93,34.53-8.93,50,0L244.46,56.39z"/>
<g>
	
		<linearGradient id="SVGID_1_" gradientUnits="userSpaceOnUse" x1="37.72" y1="995.515" x2="80.74" y2="995.515" gradientTransform="matrix(1 0 0 1 0 -784)">
		<stop offset="0" style="stop-color:#4D1E50"/>
		<stop offset="0.52" style="stop-color:#4B1D4E"/>
		<stop offset="0.71" style="stop-color:#441C4B"/>
		<stop offset="0.85" style="stop-color:#381B44"/>
		<stop offset="0.95" style="stop-color:#27193B"/>
		<stop offset="1" style="stop-color:#1E1836"/>
	</linearGradient>
	<path class="st1" d="M64.14,194.87c-8.08,0-14.78,5.74-16.34,13.39h-2.34v-12.9h-7.74v32.27h7.74v-12.9h2.34   c1.01,5.22,4.5,9.58,9.18,11.81c2.16,1.04,4.59,1.62,7.13,1.62c9.18,0,16.63-7.45,16.63-16.63c0-1.62-0.23-3.18-0.66-4.65   c-2.02-6.93-8.4-11.98-15.96-11.98L64.14,194.87z M73.78,212.24c-0.17,2.31-1.18,4.45-2.8,6.12c-1.85,1.85-4.27,2.83-6.84,2.83   c-0.26,0-0.55,0-0.81-0.03c-2.28-0.17-4.39-1.15-6.03-2.8c-1.85-1.85-2.83-4.27-2.83-6.84c0-2.57,0.98-5.02,2.83-6.84   c1.85-1.79,4.27-2.83,6.84-2.83c2.57,0,5.02,1.04,6.84,2.83c1.79,1.85,2.83,4.27,2.83,6.84c0,0.26,0,0.49-0.03,0.75V212.24z"/>
	
		<linearGradient id="SVGID_00000150816180931523721230000003086140064782503822_" gradientUnits="userSpaceOnUse" x1="142.66" y1="999.395" x2="166.44" y2="999.395" gradientTransform="matrix(1 0 0 1 0 -784)">
		<stop offset="0" style="stop-color:#4D1E50"/>
		<stop offset="0.52" style="stop-color:#4B1D4E"/>
		<stop offset="0.71" style="stop-color:#441C4B"/>
		<stop offset="0.85" style="stop-color:#381B44"/>
		<stop offset="0.95" style="stop-color:#27193B"/>
		<stop offset="1" style="stop-color:#1E1836"/>
	</linearGradient>
	<polygon style="fill:url(#SVGID_00000150816180931523721230000003086140064782503822_);" points="159.49,211.93 149.61,211.93    149.61,202.52 142.66,202.52 142.66,228.27 149.61,228.27 149.61,218.88 159.49,218.88 159.49,228.27 166.44,228.27 166.44,202.52    159.49,202.52  "/>
	
		<linearGradient id="SVGID_00000163044333672090116450000004127940445486313877_" gradientUnits="userSpaceOnUse" x1="63.13" y1="926.555" x2="77.36" y2="926.555" gradientTransform="matrix(1 0 0 1 0 -784)">
		<stop offset="0" style="stop-color:#4D1E50"/>
		<stop offset="0.52" style="stop-color:#4B1D4E"/>
		<stop offset="0.71" style="stop-color:#441C4B"/>
		<stop offset="0.85" style="stop-color:#381B44"/>
		<stop offset="0.95" style="stop-color:#27193B"/>
		<stop offset="1" style="stop-color:#1E1836"/>
	</linearGradient>
	
		<rect x="63.13" y="131.79" style="fill:url(#SVGID_00000163044333672090116450000004127940445486313877_);" width="14.23" height="21.53"/>
	
		<linearGradient id="SVGID_00000166673591004293895120000000551711301333933478_" gradientUnits="userSpaceOnUse" x1="63.13" y1="907.74" x2="142.16" y2="907.74" gradientTransform="matrix(1 0 0 1 0 -784)">
		<stop offset="0" style="stop-color:#4D1E50"/>
		<stop offset="0.52" style="stop-color:#4B1D4E"/>
		<stop offset="0.71" style="stop-color:#441C4B"/>
		<stop offset="0.85" style="stop-color:#381B44"/>
		<stop offset="0.95" style="stop-color:#27193B"/>
		<stop offset="1" style="stop-color:#1E1836"/>
	</linearGradient>
	<path style="fill:url(#SVGID_00000166673591004293895120000000551711301333933478_);" d="M111.63,141.49   c-4.73,0-9.21-1.82-12.59-5.2c-1.33-1.33-2.42-2.86-3.26-4.47H82.15c3.52,12.93,15.39,22.46,29.47,22.46   c16.86,0,30.54-13.68,30.54-30.54S128.48,93.2,111.63,93.2c-14.87,0-27.16,10.57-29.99,24.62h-4.27v-23.7H63.13v33.43h41.48   l4.94-9.73H94.88c0.87-2.48,2.25-4.73,4.19-6.67c3.38-3.29,7.85-5.2,12.59-5.2c4.73,0,9.21,1.91,12.59,5.2   c3.29,3.38,5.2,7.85,5.2,12.59c0,4.73-1.91,9.21-5.2,12.59c-3.38,3.38-7.85,5.2-12.59,5.2L111.63,141.49z"/>
	
		<linearGradient id="SVGID_00000119116142717825198950000003370473760571363242_" gradientUnits="userSpaceOnUse" x1="82.99" y1="998.84" x2="99.07" y2="998.84" gradientTransform="matrix(1 0 0 1 0 -784)">
		<stop offset="0" style="stop-color:#4D1E50"/>
		<stop offset="0.52" style="stop-color:#4B1D4E"/>
		<stop offset="0.71" style="stop-color:#441C4B"/>
		<stop offset="0.85" style="stop-color:#381B44"/>
		<stop offset="0.95" style="stop-color:#27193B"/>
		<stop offset="1" style="stop-color:#1E1836"/>
	</linearGradient>
	<polygon style="fill:url(#SVGID_00000119116142717825198950000003370473760571363242_);" points="85.7,202.05 82.99,202.05    82.99,204.36 82.99,227.63 89.95,227.63 89.95,209.01 99.07,209.01 99.07,202.05 89.95,202.05  "/>
	
		<linearGradient id="SVGID_00000042709762391219969260000003833907406458447271_" gradientUnits="userSpaceOnUse" x1="113.09" y1="995.49" x2="140.43" y2="995.49" gradientTransform="matrix(1 0 0 1 0 -784)">
		<stop offset="0" style="stop-color:#4D1E50"/>
		<stop offset="0.52" style="stop-color:#4B1D4E"/>
		<stop offset="0.71" style="stop-color:#441C4B"/>
		<stop offset="0.85" style="stop-color:#381B44"/>
		<stop offset="0.95" style="stop-color:#27193B"/>
		<stop offset="1" style="stop-color:#1E1836"/>
	</linearGradient>
	<path style="fill:url(#SVGID_00000042709762391219969260000003833907406458447271_);" d="M129.67,201.85c2.14,0,4.16,0.69,5.8,1.93   l4.96-4.91c-2.92-2.48-6.64-3.98-10.77-3.98c-9.12,0-16.57,7.45-16.57,16.63s7.45,16.57,16.57,16.57c4.13,0,7.85-1.5,10.77-3.93   l-4.96-4.96c-1.65,1.24-3.67,1.93-5.8,1.93c-2.57,0-4.96-0.98-6.81-2.83s-2.83-4.21-2.83-6.81s0.98-5.02,2.83-6.84   c1.85-1.85,4.21-2.83,6.81-2.83V201.85z"/>
	
		<linearGradient id="SVGID_00000105411837214873058720000005344533698706115467_" gradientUnits="userSpaceOnUse" x1="147.62" y1="925.92" x2="197.27" y2="925.92" gradientTransform="matrix(1 0 0 1 0 -784)">
		<stop offset="0" style="stop-color:#4D1E50"/>
		<stop offset="0.52" style="stop-color:#4B1D4E"/>
		<stop offset="0.71" style="stop-color:#441C4B"/>
		<stop offset="0.85" style="stop-color:#381B44"/>
		<stop offset="0.95" style="stop-color:#27193B"/>
		<stop offset="1" style="stop-color:#1E1836"/>
	</linearGradient>
	<path style="fill:url(#SVGID_00000105411837214873058720000005344533698706115467_);" d="M151.81,140.05   c5.4,8.52,14.89,14.2,25.69,14.2c7.56,0,14.4-2.74,19.77-7.22l-9.12-9.12c-3,2.28-6.75,3.55-10.65,3.55c-4.73,0-9.12-1.82-12.5-5.2   c-1.39-1.39-2.48-2.94-3.32-4.65c-0.32-0.66-0.61-1.33-0.87-2.02h-13.19c0.75,3.78,2.19,7.27,4.19,10.42L151.81,140.05   L151.81,140.05z"/>
	
		<linearGradient id="SVGID_00000112631072892335486910000014803911041903907755_" gradientUnits="userSpaceOnUse" x1="147.6502" y1="889.52" x2="197.2702" y2="889.52" gradientTransform="matrix(1 0 0 1 0 -784)">
		<stop offset="0" style="stop-color:#4D1E50"/>
		<stop offset="0.52" style="stop-color:#4B1D4E"/>
		<stop offset="0.71" style="stop-color:#441C4B"/>
		<stop offset="0.85" style="stop-color:#381B44"/>
		<stop offset="0.95" style="stop-color:#27193B"/>
		<stop offset="1" style="stop-color:#1E1836"/>
	</linearGradient>
	<path style="fill:url(#SVGID_00000112631072892335486910000014803911041903907755_);" d="M165.03,111.21   c3.38-3.38,7.74-5.2,12.5-5.2c3.78,0,7.39,1.21,10.36,3.35c0.12,0.09,0.2,0.14,0.32,0.2l3.46-3.41l5.66-5.6   c-5.37-4.56-12.21-7.3-19.77-7.3c-14.72,0-27.05,10.54-29.85,24.54h13.22c0.87-2.42,2.25-4.68,4.16-6.55L165.03,111.21z"/>
	
		<linearGradient id="SVGID_00000114767543090410623000000003273913342923959952_" gradientUnits="userSpaceOnUse" x1="205.84" y1="932.6" x2="217.16" y2="932.6" gradientTransform="matrix(1 0 0 1 0 -784)">
		<stop offset="0" style="stop-color:#4D1E50"/>
		<stop offset="0.52" style="stop-color:#4B1D4E"/>
		<stop offset="0.71" style="stop-color:#441C4B"/>
		<stop offset="0.85" style="stop-color:#381B44"/>
		<stop offset="0.95" style="stop-color:#27193B"/>
		<stop offset="1" style="stop-color:#1E1836"/>
	</linearGradient>
	
		<rect x="205.84" y="142.94" style="fill:url(#SVGID_00000114767543090410623000000003273913342923959952_);" width="11.32" height="11.32"/>
	
		<linearGradient id="SVGID_00000173145658008656672680000000394203370999872669_" gradientUnits="userSpaceOnUse" x1="38.31" y1="907.7" x2="233.93" y2="907.7" gradientTransform="matrix(1 0 0 1 0 -784)">
		<stop offset="0" style="stop-color:#4D1E50"/>
		<stop offset="0.52" style="stop-color:#4B1D4E"/>
		<stop offset="0.71" style="stop-color:#441C4B"/>
		<stop offset="0.85" style="stop-color:#381B44"/>
		<stop offset="0.95" style="stop-color:#27193B"/>
		<stop offset="1" style="stop-color:#1E1836"/>
	</linearGradient>
	<polygon style="fill:url(#SVGID_00000173145658008656672680000000394203370999872669_);" points="233.7,70.34 38.31,70.34    38.31,177.06 108.33,177.06 116.85,169.81 46.04,169.81 46.04,77.58 225.18,77.58 226.22,77.58 226.22,77.58 226.22,169.81    128.02,169.81 120.31,177.06 233.93,177.06 233.93,70.34  "/>
	
		<linearGradient id="SVGID_00000131332499153933421760000017470102366071244168_" gradientUnits="userSpaceOnUse" x1="168.9823" y1="999.435" x2="195.2328" y2="999.435" gradientTransform="matrix(1 0 0 1 0 -784)">
		<stop offset="0" style="stop-color:#4D1E50"/>
		<stop offset="0.52" style="stop-color:#4B1D4E"/>
		<stop offset="0.71" style="stop-color:#441C4B"/>
		<stop offset="0.85" style="stop-color:#381B44"/>
		<stop offset="0.95" style="stop-color:#27193B"/>
		<stop offset="1" style="stop-color:#1E1836"/>
	</linearGradient>
	<path style="fill:url(#SVGID_00000131332499153933421760000017470102366071244168_);" d="M188.26,205.43   c-1.53-1.93-4.16-2.83-6.61-2.83c-7.04,0.06-12.76,5.8-12.7,12.85c0.06,7.04,5.8,12.76,12.85,12.7c2.34,0,4.91-0.81,6.44-2.77v2.89   h6.96V202.6h-6.96v2.83L188.26,205.43z M186.19,219.84c-1.15,1.18-2.74,1.85-4.42,1.88c-1.67,0-3.26-0.64-4.47-1.85   c-1.18-1.18-1.88-2.77-1.88-4.47s0.63-3.26,1.85-4.47c1.18-1.18,2.77-1.85,4.47-1.85c1.65-0.06,3.23,0.61,4.42,1.79   c1.24,1.18,1.88,2.77,1.88,4.47s-0.63,3.26-1.85,4.47V219.84z"/>
	
		<linearGradient id="SVGID_00000098223290985169769270000002199670490933520058_" gradientUnits="userSpaceOnUse" x1="227" y1="1008.79" x2="233.9279" y2="1008.79" gradientTransform="matrix(1 0 0 1 0 -784)">
		<stop offset="0" style="stop-color:#4D1E50"/>
		<stop offset="0.52" style="stop-color:#4B1D4E"/>
		<stop offset="0.71" style="stop-color:#441C4B"/>
		<stop offset="0.85" style="stop-color:#381B44"/>
		<stop offset="0.95" style="stop-color:#27193B"/>
		<stop offset="1" style="stop-color:#1E1836"/>
	</linearGradient>
	
		<rect x="227" y="221.31" style="fill:url(#SVGID_00000098223290985169769270000002199670490933520058_);" width="6.96" height="6.96"/>
	
		<linearGradient id="SVGID_00000084513839534314067190000001924627421138097836_" gradientUnits="userSpaceOnUse" x1="198.2247" y1="995.02" x2="223.9405" y2="995.02" gradientTransform="matrix(1 0 0 1 0 -784)">
		<stop offset="0" style="stop-color:#4D1E50"/>
		<stop offset="0.52" style="stop-color:#4B1D4E"/>
		<stop offset="0.71" style="stop-color:#441C4B"/>
		<stop offset="0.85" style="stop-color:#381B44"/>
		<stop offset="0.95" style="stop-color:#27193B"/>
		<stop offset="1" style="stop-color:#1E1836"/>
	</linearGradient>
	<path style="fill:url(#SVGID_00000084513839534314067190000001924627421138097836_);" d="M211.27,202.72   c-1.44,0-2.83,0.2-4.13,0.64c1.99-2.34,5.11-4.13,10.13-4.13v-5.46c-3.58,0-6.75,0.69-9.44,2.14c-2.4,1.24-4.36,2.97-5.92,5.25   c-3.18,4.56-3.64,9.73-3.67,11.72c-0.06,1.88,0.06,3.32,0.29,4.42c0.84,6.15,6.15,10.91,12.56,10.97c7.04,0,12.82-5.66,12.85-12.7   c0.06-7.04-5.66-12.82-12.7-12.85L211.27,202.72L211.27,202.72z M215.63,219.98c-1.18,1.15-2.77,1.79-4.47,1.79   s-3.26-0.64-4.47-1.85c-1.18-1.24-1.85-2.83-1.79-4.47c0-1.67,0.63-3.26,1.85-4.47s2.77-1.85,4.47-1.85   c1.67,0.06,3.26,0.69,4.47,1.88c1.18,1.18,1.85,2.77,1.79,4.47c0,1.67-0.63,3.26-1.85,4.47V219.98z"/>
</g>
</svg>